<?xml version="1.0" encoding="utf-8"?>
<svg viewBox="2 2.0764 1862 3375.8499" xmlns="http://www.w3.org/2000/svg">
  <path fill="#FBFCFC" opacity="1.000000" stroke="none" d=" M1864.000000,1709.064087 C1858.666016,1710.034546 1853.331909,1710.099243 1847.997925,1710.099365 C1559.020020,1710.104248 1270.042114,1710.103638 981.064270,1710.103638 C977.067322,1710.103638 973.070374,1710.103638 967.417847,1710.103638 C969.337708,1713.905762 970.769043,1717.008667 972.427124,1719.985107 C1026.847290,1817.675293 1081.316406,1915.338257 1135.723022,2013.036133 C1363.065430,2421.274170 1590.390503,2829.522217 1817.719482,3237.767822 C1830.834717,3261.320801 1843.877563,3284.914062 1857.098755,3308.407471 C1858.595093,3311.066162 1861.035767,3313.193604 1863.519287,3314.783691 C1864.000000,3314.888916 1864.000000,3315.777832 1863.399170,3317.128906 C1863.198975,3318.394043 1863.599487,3319.197021 1864.000000,3320.000000 C1864.000000,3339.324707 1864.000000,3358.649658 1864.000000,3377.926270 C1243.333374,3377.926270 622.666687,3377.926270 2.000000,3377.926270 C2.000000,3361.193115 2.000000,3344.533936 2.000001,3326.937256 C3.019927,3325.972412 4.607702,3326.348389 4.963376,3325.848145 C6.689487,3323.420898 8.136003,3320.786621 9.590516,3318.174805 C237.565536,2908.805664 465.534241,2499.432373 693.499451,2090.057617 C762.309937,1966.489136 831.110413,1842.915161 899.906921,1719.338867 C901.327026,1716.787964 902.642029,1714.178467 904.659241,1710.359863 C605.211487,1710.359863 306.891235,1710.359863 8.110134,1710.359863 C8.110134,1697.909302 8.110134,1686.447021 8.110134,1674.124146 C306.509766,1674.124146 604.584229,1674.124146 904.111511,1674.124146 C897.231262,1661.593750 891.089478,1650.295898 884.846130,1639.054565 C800.221619,1486.686035 715.584290,1334.324585 630.947327,1181.962891 C559.550659,1053.435913 488.131134,924.921753 416.757141,796.382263 C347.487000,671.631714 278.279816,546.846191 209.011658,422.094513 C150.884033,317.406921 92.704704,212.748001 34.557785,108.071098 C25.672613,92.075882 16.893826,76.021149 7.915709,60.078487 C6.722842,57.960281 4.638368,56.344185 2.483404,55.247780 C2.000000,38.007954 2.000000,20.015911 2.000000,2.076373 C622.666687,2.076373 1243.333374,2.076373 1864.000000,2.076373 C1864.000000,22.810286 1864.000000,43.467827 1864.000000,65.062683 C1860.741821,63.139648 1860.460083,66.576096 1859.541016,68.213882 C1849.771484,85.619545 1840.018433,103.034706 1830.331421,120.486389 C1777.222656,216.163742 1724.146851,311.859375 1671.034912,407.535004 C1589.519043,554.377197 1507.986816,701.210327 1426.454468,848.043396 C1367.354736,954.477051 1308.236572,1060.900391 1249.138794,1167.335083 C1164.220337,1320.272583 1079.314209,1473.216919 994.399475,1626.156372 C986.971741,1639.534424 979.501404,1652.888794 972.090881,1666.276245 C970.854797,1668.509277 969.825317,1670.856689 968.246582,1674.076904 C972.959778,1674.076904 976.544617,1674.077026 980.129456,1674.077026 C1270.060425,1674.077026 1559.991455,1674.070679 1849.922363,1674.137329 C1854.147705,1674.138306 1858.372803,1675.046265 1863.299072,1674.765503 C1864.000000,1685.376099 1864.000000,1696.752075 1864.000000,1709.064087 M145.396393,233.472763 C175.264954,287.306427 205.116455,341.149567 235.004944,394.972168 C387.846863,670.206726 540.707886,945.430725 693.542297,1220.669434 C772.546021,1362.946899 851.505493,1505.249023 930.512207,1647.524780 C932.033386,1650.264282 933.891907,1652.816406 936.388306,1656.689941 C1236.381226,1116.425781 1535.616455,577.525940 1835.325317,37.773407 C1235.174561,37.773407 636.734802,37.773407 36.716930,37.773407 C73.051842,103.278137 108.819267,167.759781 145.396393,233.472763 M749.000427,2064.052734 C730.410156,2097.487549 711.839783,2130.933350 693.226196,2164.355225 C617.320007,2300.648682 541.388184,2436.927734 465.489410,2573.225342 C388.130829,2712.144775 310.822479,2851.092041 233.450607,2990.004150 C169.352722,3105.083740 105.190758,3220.128174 41.088943,3335.205566 C39.859512,3337.412842 39.019215,3339.836670 37.839577,3342.518066 C636.939148,3342.518066 1235.242920,3342.518066 1834.962891,3342.518066 C1535.191895,2804.215820 1236.075073,2267.088379 935.995728,1728.232422 C873.237122,1840.961670 811.492371,1951.869751 749.000427,2064.052734 z"/>
</svg>